<svg width="16" height="13" viewBox="0 0 16 13" fill="none" xmlns="http://www.w3.org/2000/svg">
<path d="M16 6.49573C16 6.28149 15.9138 6.08439 15.7416 5.92157L10.0291 0.257087C9.83953 0.0685565 9.65858 0 9.45184 0C9.02959 0 8.70219 0.308504 8.70219 0.736981C8.70219 0.94265 8.77115 1.13975 8.90901 1.27686L10.839 3.23073L14.2595 6.33291L14.4319 5.90443L11.6575 5.73304H0.758213C0.310178 5.73304 0 6.05012 0 6.49573C0 6.94135 0.310178 7.25842 0.758213 7.25842H11.6575L14.4319 7.08703L14.2595 6.66712L10.839 9.76077L8.90901 11.7146C8.77115 11.8431 8.70219 12.0488 8.70219 12.2545C8.70219 12.683 9.02959 12.9914 9.45184 12.9914C9.65858 12.9914 9.83953 12.9144 10.0119 12.7515L15.7416 7.06989C15.9138 6.90707 16 6.70997 16 6.49573Z" fill="black"/>
</svg>
