<svg width="32" height="32" viewBox="0 0 32 32" fill="none" xmlns="http://www.w3.org/2000/svg">
<path d="M12.0832 32H27.2665C30.4121 32 32 30.413 32 27.2694V11.8264C32 8.68289 30.4121 7.09586 27.2665 7.09586H12.0832C8.90736 7.09586 7.33458 8.66763 7.33458 11.8264V27.2694C7.33458 30.413 8.90736 32 12.0832 32ZM0 20.2041C0 23.3477 1.57278 24.9346 4.74858 24.9346H5.26275V11.8264C5.26275 7.50787 7.77315 5.02051 12.0832 5.02051H24.6654V4.76109C24.6654 1.61755 23.0775 0.0305176 19.9319 0.0305176H4.74858C1.57278 0.0305176 0 1.61755 0 4.76109V20.2041ZM13.5652 15.6261C12.3403 15.6109 11.3573 14.6343 11.3573 13.3829C11.3573 12.1621 12.3403 11.1702 13.5652 11.1702C14.775 11.1702 15.7732 12.1621 15.7732 13.3829C15.7732 14.6343 14.775 15.6566 13.5652 15.6261ZM25.7694 15.6261C24.5595 15.6109 23.5614 14.6343 23.5614 13.3829C23.5614 12.1621 24.5595 11.1702 25.7694 11.1702C26.9791 11.1702 27.9773 12.1621 27.9773 13.3829C27.9773 14.6343 26.9791 15.6566 25.7694 15.6261ZM19.6597 21.8064C18.4499 21.8064 17.467 20.7993 17.467 19.5479C17.467 18.3271 18.4499 17.3505 19.6597 17.3505C20.8696 17.3505 21.8676 18.3271 21.8676 19.5479C21.8676 20.7993 20.8696 21.8064 19.6597 21.8064ZM13.5652 27.9714C12.3403 27.9714 11.3724 26.9642 11.3724 25.7282C11.3724 24.4922 12.3403 23.5155 13.5652 23.5155C14.775 23.5155 15.758 24.4922 15.758 25.7282C15.758 26.9642 14.775 27.9714 13.5652 27.9714ZM25.7694 27.9714C24.5595 27.9714 23.5765 26.9642 23.5765 25.7282C23.5765 24.4922 24.5595 23.5155 25.7694 23.5155C26.9791 23.5155 27.9773 24.4922 27.9773 25.7282C27.9773 26.9642 26.9791 27.9714 25.7694 27.9714Z" fill="#3D52D5"/>
</svg>
