<svg width="11" height="14" viewBox="0 0 11 14" fill="none" xmlns="http://www.w3.org/2000/svg">
<g id="pause.fill" clip-path="url(#clip0_137_4701)">
<g id="Group">
<path id="Vector" d="M1.59016 14H3.45901C4.17212 14 4.54917 13.6047 4.54917 12.8484V1.14303C4.54917 0.360959 4.17212 0 3.45901 0H1.59016C0.877048 0 0.5 0.395335 0.5 1.14303V12.8484C0.5 13.6047 0.877048 14 1.59016 14ZM7.54915 14H9.40983C10.1311 14 10.5 13.6047 10.5 12.8484V1.14303C10.5 0.360959 10.1311 0 9.40983 0H7.54915C6.82786 0 6.45081 0.395335 6.45081 1.14303V12.8484C6.45081 13.6047 6.82786 14 7.54915 14Z" fill="#3D52D5"/>
</g>
</g>
<defs>
<clipPath id="clip0_137_4701">
<rect width="10" height="14" fill="white" transform="translate(0.5)"/>
</clipPath>
</defs>
</svg>
