<svg width="23" height="24" viewBox="0 0 23 24" fill="none" xmlns="http://www.w3.org/2000/svg">
<g clip-path="url(#clip0_47_5169)">
<path d="M6.82406 23.0453C7.2158 23.0453 7.5071 22.8443 7.97919 22.4024L11.6053 19.0877H18.3955C21.3888 19.0877 22.9959 17.4404 22.9959 14.4973V6.80309C22.9959 3.86001 21.3888 2.20264 18.3955 2.20264H5.45799C2.46469 2.20264 0.857544 3.84996 0.857544 6.80309V14.4973C0.857544 17.4504 2.46469 19.0877 5.45799 19.0877H5.93009V22.0107C5.93009 22.6334 6.25152 23.0453 6.82406 23.0453ZM5.98031 10.3991C5.21692 10.3991 4.83522 10.0374 4.83522 9.28411V7.22496C4.83522 6.48166 5.21692 6.12005 5.98031 6.12005H10.5205C11.2638 6.12005 11.6455 6.48166 11.6455 7.22496V9.28411C11.6455 10.0374 11.2638 10.3991 10.5205 10.3991H5.98031ZM7.22585 15.1703C6.48254 15.1703 6.1109 14.7986 6.1109 14.0453V12.6491C6.1109 11.9057 6.48254 11.5341 7.22585 11.5341H11.1332C11.8765 11.5341 12.2482 11.9057 12.2482 12.6491V14.0453C12.2482 14.7986 11.8765 15.1703 11.1332 15.1703H7.22585ZM14.5383 14.5475C13.785 14.5475 13.4033 14.1859 13.4033 13.4326V7.93813C13.4033 7.19483 13.785 6.82318 14.5383 6.82318H17.7627C18.5161 6.82318 18.8877 7.19483 18.8877 7.93813V13.4326C18.8877 14.1859 18.5161 14.5475 17.7627 14.5475H14.5383Z" fill="#121212"/>
</g>
<defs>
<clipPath id="clip0_47_5169">
<rect width="22.1384" height="22.1886" fill="white" transform="translate(0.857178 0.856934)"/>
</clipPath>
</defs>
</svg>
