<svg width="23" height="24" viewBox="0 0 23 24" fill="none" xmlns="http://www.w3.org/2000/svg">
<g clip-path="url(#clip0_47_5176)">
<path d="M6.82358 23.0453C7.21532 23.0453 7.50661 22.8443 7.9787 22.4024L11.6049 19.0877H18.395C21.3883 19.0877 22.9954 17.4404 22.9954 14.4973V6.80309C22.9954 3.86001 21.3883 2.20264 18.395 2.20264H5.4575C2.4642 2.20264 0.857056 3.84996 0.857056 6.80309V14.4973C0.857056 17.4504 2.4642 19.0877 5.4575 19.0877H5.9296V22.0107C5.9296 22.6334 6.25103 23.0453 6.82358 23.0453ZM11.7254 12.7897C11.183 12.7897 10.8916 12.5085 10.8916 11.966C10.8916 11.9259 10.8916 11.8757 10.8916 11.8355C10.8916 10.8109 11.4542 10.2685 12.1875 9.74617C13.1015 9.11335 13.5334 8.77184 13.5334 8.06871C13.5334 7.28523 12.9207 6.75287 11.9765 6.75287C11.2935 6.75287 10.7511 7.09438 10.3794 7.69706L10.1985 7.94818C10.0077 8.18925 9.78677 8.36001 9.43517 8.36001C9.08362 8.36001 8.71196 8.10889 8.71196 7.64684C8.71196 7.46603 8.75215 7.29527 8.80237 7.13456C9.09367 6.18032 10.2589 5.34661 12.0468 5.34661C13.8147 5.34661 15.3515 6.26068 15.3515 7.98835C15.3515 9.23389 14.6283 9.8366 13.6238 10.4995C12.9006 10.9716 12.559 11.3433 12.559 11.9259C12.559 11.956 12.559 12.0062 12.559 12.0464C12.559 12.4583 12.2477 12.7897 11.7254 12.7897ZM11.6952 15.8734C11.1026 15.8734 10.5803 15.4013 10.5803 14.7986C10.5803 14.206 11.0925 13.7238 11.6952 13.7238C12.308 13.7238 12.8202 14.1959 12.8202 14.7986C12.8202 15.4114 12.2979 15.8734 11.6952 15.8734Z" fill="#121212"/>
</g>
<defs>
<clipPath id="clip0_47_5176">
<rect width="22.1384" height="22.1886" fill="white" transform="translate(0.857178 0.856934)"/>
</clipPath>
</defs>
</svg>
