<svg width="40" height="40" viewBox="0 0 40 40" fill="none" xmlns="http://www.w3.org/2000/svg">
<circle cx="20" cy="20" r="19.25" stroke="#121212" stroke-width="1.5" stroke-dasharray="3 3"/>
<path d="M19.762 20.863V20.238H19.137H12.863C12.7382 20.238 12.625 20.1254 12.625 20C12.625 19.8655 12.7473 19.7523 12.863 19.7523H19.137H19.762V19.1273V12.863C19.762 12.7382 19.8746 12.625 20 12.625C20.1346 12.625 20.2478 12.7473 20.2478 12.863V19.1273V19.7523H20.8728H27.137C27.2527 19.7523 27.375 19.8655 27.375 20C27.375 20.1255 27.2618 20.238 27.137 20.238H20.8728H20.2478V20.863V27.137C20.2478 27.2527 20.1346 27.375 20 27.375C19.8745 27.375 19.762 27.2618 19.762 27.137V20.863Z" stroke="#121212" stroke-width="1.25"/>
</svg>
