<svg width="25" height="25" viewBox="0 0 25 25" fill="none" xmlns="http://www.w3.org/2000/svg">
<path d="M8.08434 7.8913C10.0843 7.8913 11.747 6.09723 11.747 3.95215C11.747 1.79407 10.0843 0 8.08434 0C6.08434 0 4.42169 1.79407 4.42169 3.95215C4.42169 6.08424 6.07229 7.8913 8.08434 7.8913ZM16.9156 7.8913C18.9156 7.8913 20.5903 6.09723 20.5903 3.95215C20.5903 1.79407 18.9156 0 16.9156 0C14.9157 0 13.253 1.79407 13.253 3.95215C13.253 6.09723 14.9157 7.8913 16.9156 7.8913ZM3.66265 16.4456C5.6747 16.4456 7.33735 14.6515 7.33735 12.4935C7.33735 10.3354 5.6747 8.54133 3.66265 8.54133C1.66265 8.54133 0 10.3354 0 12.4935C0 14.6385 1.6506 16.4456 3.66265 16.4456ZM21.3373 16.4456C23.3373 16.4456 25 14.6515 25 12.4935C25 10.3354 23.3373 8.54133 21.3373 8.54133C19.3374 8.54133 17.6627 10.3354 17.6627 12.4935C17.6627 14.6515 19.3374 16.4456 21.3373 16.4456ZM8.08434 24.9869C10.0843 24.9869 11.747 23.1928 11.747 21.0348C11.747 18.8767 10.0843 17.0826 8.08434 17.0826C6.08434 17.0826 4.42169 18.8767 4.42169 21.0348C4.42169 23.1798 6.07229 24.9869 8.08434 24.9869ZM16.9156 24.9869C18.9156 24.9869 20.5903 23.1928 20.5903 21.0348C20.5903 18.8767 18.9156 17.0826 16.9156 17.0826C14.9157 17.0826 13.253 18.8767 13.253 21.0348C13.253 23.1928 14.9157 24.9869 16.9156 24.9869Z" fill="#A9AEBD"/>
</svg>
