<svg width="25" height="26" viewBox="0 0 25 26" fill="none" xmlns="http://www.w3.org/2000/svg">
<path d="M11.3995 25.9881H13.6005C14.2225 25.9881 14.677 25.6174 14.8086 25.0076L15.4306 22.3773C15.8971 22.2219 16.3516 22.0426 16.7464 21.8513L19.055 23.2621C19.5694 23.5849 20.1555 23.537 20.5861 23.1067L22.1292 21.5763C22.5598 21.1459 22.6196 20.5241 22.2727 20.01L20.8612 17.7264C21.0646 17.308 21.244 16.8776 21.3756 16.4471L24.0311 15.8135C24.6411 15.6819 25 15.2276 25 14.6059V12.4419C25 11.8322 24.6411 11.3778 24.0311 11.2463L21.3995 10.6126C21.244 10.1224 21.0526 9.68006 20.8851 9.30942L22.2967 6.98995C22.6316 6.47585 22.5957 5.89001 22.1531 5.45959L20.5861 3.91727C20.1436 3.51076 19.6173 3.43902 19.0909 3.73792L16.7464 5.1846C16.3636 4.98135 15.9211 4.80201 15.4306 4.64658L14.8086 1.98039C14.677 1.37064 14.2225 1 13.6005 1H11.3995C10.7775 1 10.323 1.37064 10.1794 1.98039L9.55741 4.62267C9.0909 4.77809 8.63636 4.95744 8.22966 5.17264L5.90909 3.73792C5.38277 3.43902 4.84449 3.49881 4.40191 3.91727L2.84689 5.45959C2.40431 5.89001 2.35645 6.47585 2.70335 6.98995L4.10287 9.30942C3.94737 9.68006 3.75598 10.1224 3.60047 10.6126L0.968899 11.2463C0.358851 11.3778 0 11.8322 0 12.4419V14.6059C0 15.2276 0.358851 15.6819 0.968899 15.8135L3.6244 16.4471C3.75598 16.8776 3.93541 17.308 4.12679 17.7264L2.72728 20.01C2.36842 20.5241 2.44019 21.1459 2.87081 21.5763L4.40191 23.1067C4.83254 23.537 5.43062 23.5849 5.94497 23.2621L8.24162 21.8513C8.64832 22.0426 9.0909 22.2219 9.55741 22.3773L10.1794 25.0076C10.323 25.6174 10.7775 25.9881 11.3995 25.9881ZM12.5 17.7145C10.1794 17.7145 8.27751 15.8015 8.27751 13.4821C8.27751 11.1746 10.1794 9.27356 12.5 9.27356C14.8205 9.27356 16.7225 11.1746 16.7225 13.4821C16.7225 15.8015 14.8205 17.7145 12.5 17.7145Z" fill="white"/>
</svg>
