<svg width="24" height="24" viewBox="0 0 24 24" fill="none" xmlns="http://www.w3.org/2000/svg">
<path d="M13.3292 20.9932C12.6462 20.9932 12.154 20.4909 12.154 19.8179V15.9809H11.8627C7.96539 15.9809 5.51448 16.9653 3.75665 20.2499C3.40514 20.8927 2.94305 20.9932 2.52117 20.9932C1.98879 20.9932 1.48659 20.511 1.48659 19.6472C1.48659 12.2242 4.63051 7.59361 11.8627 7.59361H12.154V3.79674C12.154 3.12374 12.6462 2.57129 13.3493 2.57129C13.8415 2.57129 14.173 2.78223 14.7053 3.28446L22.6305 10.6974C23.0223 11.0691 23.1428 11.4407 23.1428 11.7822C23.1428 12.1137 23.0122 12.4954 22.6305 12.857L14.7053 20.3403C14.2232 20.7923 13.8214 20.9932 13.3292 20.9932Z" fill="#121212"/>
</svg>
