<svg width="25" height="23" viewBox="0 0 25 23" fill="none" xmlns="http://www.w3.org/2000/svg">
<g clip-path="url(#clip0_111_2373)">
<path d="M0.972943 22.9868H3.20608C3.78984 22.9868 4.17902 22.4041 4.17902 21.5434V15.5981C4.17902 14.7375 3.78984 14.1681 3.20608 14.1681H0.972943C0.389177 14.1681 0 14.7375 0 15.5981V21.5434C0 22.4041 0.389177 22.9868 0.972943 22.9868ZM7.91326 22.9868H10.1464C10.7302 22.9868 11.1193 22.4041 11.1193 21.5434V11.4668C11.1193 10.6062 10.7302 10.0236 10.1464 10.0236H7.91326C7.3295 10.0236 6.94032 10.6062 6.94032 11.4668V21.5434C6.94032 22.4041 7.3295 22.9868 7.91326 22.9868ZM14.8536 22.9868H17.0867C17.6612 22.9868 18.0596 22.4041 18.0596 21.5434V6.67357C18.0596 5.81289 17.6612 5.23028 17.0867 5.23028H14.8536C14.2698 5.23028 13.8807 5.81289 13.8807 6.67357V21.5434C13.8807 22.4041 14.2698 22.9868 14.8536 22.9868ZM21.7847 22.9868H24.0363C24.6108 22.9868 25 22.4041 25 21.5434V1.44329C25 0.582613 24.6108 0 24.0363 0H21.7847C21.2101 0 20.8117 0.582613 20.8117 1.44329V21.5434C20.8117 22.4041 21.2101 22.9868 21.7847 22.9868Z" fill="#A9AEBD"/>
</g>
<defs>
<clipPath id="clip0_111_2373">
<rect width="25" height="23" fill="white"/>
</clipPath>
</defs>
</svg>
